<svg xmlns="http://www.w3.org/2000/svg" height="800" width="1200" viewBox="-12.6 -21 109.2 126"><path d="M59.4128 32.731c3.6398 0 4.4448 3.9827 4.6231 6.6088h-9.8548c.4017-3.7507 2.1163-6.6088 5.2317-6.6088zm9.5679 8.4176c.8468 0 1.5346-.681 1.535-1.4663.0004-3.521-5.099-8.5092-11.4226-8.5092-6.5961 0-11.943 5.2095-11.943 11.6364 0 6.4273 5.3469 11.6368 11.943 11.6368 5.2909 0 9.7747-3.3525 11.344-7.9958h-1.4477c-1.1108 2.0685-3.0385 4.2349-6.2446 4.2349-5.5718 0-8.686-3.7965-8.6595-9.536l.0004-.0004zm-22.0784-9.5864h-6.52v1.0638h.26c2.8728 0 4.8233 2.9209 3.722 5.5746l-3.0385 7.3187-4.7762-11.2237c-.337-.7912.2438-1.6696 1.104-1.6696h.019v-1.0638H25.905v1.0638h.1575c.968 0 1.842.5781 2.2212 1.4684l1.6936 3.98-3.0893 7.4449-4.7763-11.2237c-.337-.7912.244-1.6695 1.1037-1.6695h.0193v-1.0639H11.4674v1.0639h.1575c.968 0 1.842.578 2.2212 1.4683l7.9824 18.757a2.127 2.127 0 001.9612 1.2938 2.1261 2.1261 0 001.9607-1.3112l5.1886-12.5002 5.3276 12.5175a2.126 2.126 0 001.9607 1.294 2.1257 2.1257 0 001.9608-1.3113l8.0191-19.3173c.386-.9301-.298-1.9545-1.305-1.9545zm22.2023 37.5424c-7.2402 7.2397-16.8657 11.2272-27.1048 11.2272-10.2383 0-19.8642-3.9875-27.1044-11.2272-7.2397-7.2402-11.2272-16.866-11.2272-27.1044 0-10.2391 3.9875-19.865 11.2272-27.1048 7.2402-7.2397 16.866-11.2272 27.1044-11.2272 10.2391 0 19.8646 3.9875 27.1048 11.2272 7.2401 7.2398 11.2268 16.8657 11.2268 27.1048 0 10.2383-3.9867 19.8642-11.2268 27.1044zM80.6988 25.651c-2.1159-5.0016-5.1437-9.493-9.0005-13.3498-3.8564-3.8564-8.3478-6.8846-13.3494-9C53.1698 1.1107 47.6694 0 41.9998 0 36.331 0 30.8302 1.1108 25.6511 3.3012c-5.0012 2.1155-9.493 5.1437-13.3498 9.0001-3.8564 3.8568-6.8846 8.3482-9 13.3498C1.1107 30.8302 0 36.331 0 42.0002c0 5.6688 1.1108 11.1696 3.3012 16.3487 2.1155 5.0016 5.1437 9.493 9.0001 13.3494 3.8568 3.8568 8.3486 6.885 13.3498 9.0005C30.8302 82.8892 36.331 84 41.9998 84c5.6696 0 11.17-1.1108 16.3491-3.3012 5.0016-2.1155 9.493-5.1437 13.3494-9.0005 3.8568-3.8564 6.8846-8.3478 9.0005-13.3494C82.8892 53.1698 84 47.669 84 42.0002c0-5.6692-1.1108-11.17-3.3012-16.3491z" fill="#252729" fill-rule="evenodd"/></svg>